<?xml version="1.0" standalone="no"?><!DOCTYPE svg PUBLIC "-//W3C//DTD SVG 1.1//EN" "http://www.w3.org/Graphics/SVG/1.1/DTD/svg11.dtd"><svg t="1763741271725" class="icon" viewBox="0 0 1024 1024" version="1.1" xmlns="http://www.w3.org/2000/svg" p-id="1655" width="64" height="64" xmlns:xlink="http://www.w3.org/1999/xlink"><path d="M770.909963 1024c-15.340824 0-28.124844-12.78402-28.124844-28.124844V908.94382H574.036055c-14.701623 0-28.124844-20.454432-28.124844-35.795256v-196.873907c0-16.619226 15.340824-19.815231 28.124844-19.815231h168.749064V602.127341c0-15.340824 12.78402-28.124844 28.124844-28.124844s28.124844 12.78402 28.124843 28.124844v54.332085h168.749064c12.78402 0 28.124844 3.196005 28.124844 19.815231v196.873907c0 15.980025-13.423221 35.795256-28.124844 35.795256h-168.749064v86.931336c0 15.340824-12.78402 28.124844-28.124843 28.124844z m28.124843-170.666667h141.263421v-141.26342h-141.263421v141.26342z m-196.873907 0h141.263421v-141.26342H602.160899v141.26342z m-108.024969 167.470662c-114.416979-2.556804-336.219725-72.229713-361.148564-317.043695l-1.917603-21.732834-35.156055 23.650437a33.302372 33.302372 0 0 1-46.661673-9.588015c-10.227216-15.340824-6.39201-36.434457 9.588015-47.300874l91.405743-60.724095s3.835206-2.556804 5.752809-3.196005l6.39201-1.917603h12.78402l11.505618 5.113608 88.848939 59.445693c7.670412 5.113608 12.78402 12.78402 14.701622 21.732834s0 17.897628-5.113608 25.56804a33.494132 33.494132 0 0 1-46.661672 9.588015l-40.269663-26.207241 3.835206 28.124844c30.042447 237.782772 283.805243 246.731586 294.032459 247.370786 8.948814 0 17.258427 3.835206 23.650437 10.227216 6.39201 6.39201 9.588015 15.340824 9.588015 24.289638 0 18.536829-15.980025 33.238452-34.516854 33.238452zM70.984869 433.378277H63.953658c-22.372035 0-37.073658-14.701623-37.073658-33.238452V70.31211C26.88 51.775281 42.220824 36.434457 60.757653 36.434457h274.856429c18.536829 0 33.877653 15.340824 33.877653 33.877653s-15.340824 33.877653-33.877653 33.877653H94.635306v96.519351h240.978776c18.536829 0 33.877653 15.340824 33.877653 33.877653s-15.340824 33.877653-33.877653 33.877652H94.635306v96.519351h240.978776c18.536829 0 33.877653 15.340824 33.877653 33.877653s-15.340824 33.877653-33.877653 33.877653H70.984869z m768.958801-4.474407l-7.670412-2.556804-5.752809-3.196005-88.209737-58.806492a34.516854 34.516854 0 0 1-9.588015-47.300874 33.494132 33.494132 0 0 1 46.661673-9.588015l37.712858 24.928839-5.113608-30.042447c-37.712859-225.637953-281.88764-233.947566-292.114856-234.586766-18.536829 0-33.238452-15.980025-33.238452-34.516854 0-18.536829 15.340824-33.238452 33.877653-33.238452 113.138577 2.556804 332.384519 70.951311 361.148564 309.373283l2.556804 21.093633 37.712859-24.928839a33.302372 33.302372 0 0 1 46.661673 9.588015c10.227216 15.340824 6.39201 36.434457-9.588015 47.300874l-90.766542 60.084894-6.39201 3.196005-7.031211 1.917603h-12.144819z" fill="#595959" p-id="1656"></path></svg>